<svg width="19" height="22" viewBox="0 0 19 22" fill="none" xmlns="http://www.w3.org/2000/svg">
<path d="M9.50509 21.8541C8.39701 21.8541 7.29911 21.5287 6.43501 20.8882L2.06367 17.625C0.904761 16.7609 0 14.9616 0 13.518V5.96482C0 4.39927 1.14876 2.73207 2.62281 2.18312L7.69557 0.282103C8.70199 -0.0940342 10.2879 -0.0940342 11.2943 0.282103L16.3772 2.18312C17.8513 2.73207 19 4.39927 19 5.96482V13.518C19 14.9616 18.0952 16.7609 16.9363 17.625L12.565 20.8882C11.7111 21.5287 10.6132 21.8541 9.50509 21.8541ZM8.23435 1.70532L3.1616 3.60633C2.28734 3.93164 1.52488 5.02956 1.52488 5.96482V13.518C1.52488 14.4838 2.206 15.8358 2.96844 16.4051L7.33975 19.6683C8.50883 20.5426 10.4912 20.5426 11.6603 19.6683L16.0316 16.4051C16.8042 15.8257 17.4751 14.4736 17.4751 13.518V5.96482C17.4751 5.03972 16.7127 3.9418 15.8384 3.60633L10.7657 1.70532C10.0947 1.45118 8.91547 1.45118 8.23435 1.70532Z" fill="#0033CC"/>
<path d="M9.50461 10.5804C9.48428 10.5804 9.46394 10.5804 9.43345 10.5804C7.9594 10.5397 6.88184 9.41131 6.88184 8.03888C6.88184 6.636 8.03056 5.48724 9.43345 5.48724C10.8363 5.48724 11.9851 6.636 11.9851 8.03888C11.9749 9.42147 10.8973 10.5396 9.52494 10.5904C9.51477 10.5803 9.51477 10.5804 9.50461 10.5804ZM9.43345 7.01212C8.86416 7.01212 8.40669 7.4696 8.40669 8.03888C8.40669 8.59801 8.84383 9.04523 9.39278 9.06557H9.50461C10.0434 9.03507 10.4602 8.58784 10.4602 8.03888C10.4704 7.4696 10.0027 7.01212 9.43345 7.01212Z" fill="#0033CC"/>
<path d="M9.50553 16.3544C8.63127 16.3544 7.74684 16.1206 7.06573 15.6631C6.38461 15.2158 5.99829 14.555 5.99829 13.8536C5.99829 13.1521 6.38461 12.4914 7.06573 12.0339C8.43812 11.119 10.5831 11.1291 11.9453 12.0339C12.6265 12.4812 13.0128 13.142 13.0128 13.8434C13.0128 14.5449 12.6265 15.2056 11.9453 15.6631C11.2642 16.1206 10.3798 16.3544 9.50553 16.3544ZM7.90949 13.2945C7.65535 13.4571 7.51302 13.6604 7.52319 13.8434C7.52319 14.0264 7.66551 14.2297 7.90949 14.3924C8.76342 14.9617 10.2476 14.9617 11.1016 14.3924C11.3557 14.2297 11.498 14.0264 11.498 13.8434C11.498 13.6604 11.3557 13.4571 11.1117 13.2945C10.2578 12.7353 8.76342 12.7353 7.90949 13.2945Z" fill="#0033CC"/>
</svg>
