<svg width="19" height="21" viewBox="0 0 19 21" fill="none" xmlns="http://www.w3.org/2000/svg">
<path d="M18.1 4.78097C14.9365 4.46747 11.754 4.30597 8.581 4.30597C6.7 4.30597 4.819 4.40097 2.938 4.59097L1 4.78097" stroke="#0033CC" stroke-width="1.5" stroke-linecap="round" stroke-linejoin="round"/>
<path d="M6.22498 3.8215L6.43398 2.577C6.58598 1.6745 6.69998 1 8.30548 1H10.7945C12.4 1 12.5235 1.7125 12.666 2.5865L12.875 3.8215" stroke="#0033CC" stroke-width="1.5" stroke-linecap="round" stroke-linejoin="round"/>
<path d="M16.0576 7.78302L15.4401 17.3495C15.3356 18.841 15.2501 20 12.5996 20H6.5006C3.8501 20 3.7646 18.841 3.6601 17.3495L3.0426 7.78302" stroke="#0033CC" stroke-width="1.5" stroke-linecap="round" stroke-linejoin="round"/>
<path d="M7.9635 14.775H11.127" stroke="#0033CC" stroke-width="1.5" stroke-linecap="round" stroke-linejoin="round"/>
<path d="M7.17493 10.975H11.9249" stroke="#0033CC" stroke-width="1.5" stroke-linecap="round" stroke-linejoin="round"/>
</svg>
