<svg width="22" height="21" viewBox="0 0 22 21" fill="none" xmlns="http://www.w3.org/2000/svg">
<path d="M14.3889 1H7.43113C4.96322 1 4.4181 2.229 4.10093 3.73552L2.98096 9.09757H18.839L17.7191 3.73552C17.4019 2.229 16.8568 1 14.3889 1Z" stroke="#0033CC" stroke-width="1.5" stroke-linecap="round" stroke-linejoin="round"/>
<path d="M20.8115 17.8394C20.9205 18.999 19.9888 20 18.7995 20H16.9362C15.8657 20 15.7171 19.5441 15.5288 18.9792L15.3305 18.3845C15.053 17.5718 14.8746 17.0266 13.4474 17.0266H8.37278C6.94555 17.0266 6.73741 17.6411 6.48963 18.3845L6.2914 18.9792C6.10309 19.5441 5.95442 20 4.884 20H3.02068C1.83132 20 0.899658 18.999 1.00868 17.8394L1.56371 11.8034C1.70247 10.3167 1.9899 9.0976 4.58666 9.0976H17.2335C19.8303 9.0976 20.1177 10.3167 20.2564 11.8034L20.8115 17.8394Z" stroke="#0033CC" stroke-width="1.5" stroke-linecap="round" stroke-linejoin="round"/>
<path d="M2.981 6.12421H1.98987" stroke="#0033CC" stroke-width="1.5" stroke-linecap="round" stroke-linejoin="round"/>
<path d="M19.8302 6.12421H18.8391" stroke="#0033CC" stroke-width="1.5" stroke-linecap="round" stroke-linejoin="round"/>
<path d="M10.91 1.16852V3.15078" stroke="#0033CC" stroke-width="1.5" stroke-linecap="round" stroke-linejoin="round"/>
<path d="M9.42334 3.15082H12.3967" stroke="#0033CC" stroke-width="1.5" stroke-linecap="round" stroke-linejoin="round"/>
<path d="M4.96326 13.0621H7.93665" stroke="#0033CC" stroke-width="1.5" stroke-linecap="round" stroke-linejoin="round"/>
<path d="M13.8834 13.0621H16.8568" stroke="#0033CC" stroke-width="1.5" stroke-linecap="round" stroke-linejoin="round"/>
</svg>
